<?xml version="1.0" standalone="no"?>
<!DOCTYPE svg PUBLIC "-//W3C//DTD SVG 20010904//EN"
 "http://www.w3.org/TR/2001/REC-SVG-20010904/DTD/svg10.dtd">
<svg version="1.0" xmlns="http://www.w3.org/2000/svg"
 width="512.000000pt" height="512.000000pt" viewBox="0 0 512.000000 512.000000"
 preserveAspectRatio="xMidYMid meet">

<g transform="translate(0.000000,512.000000) scale(0.100000,-0.100000)"
fill="#fff" stroke="#fff">
<path d="M934 4361 c-24 -15 -38 -37 -59 -93 -15 -40 -31 -76 -34 -80 -4 -4
-30 1 -59 12 -95 36 -178 22 -220 -37 -32 -47 -473 -1273 -474 -1318 0 -27 42
-154 131 -398 72 -197 131 -363 131 -368 0 -5 -19 -9 -41 -9 -54 0 -111 -33
-138 -80 -20 -35 -21 -52 -21 -259 l0 -221 -39 0 c-45 0 -83 -26 -100 -68 -9
-20 -11 -82 -9 -196 l3 -166 33 -32 32 -33 198 -3 197 -4 38 -54 c43 -61 116
-123 189 -160 223 -113 514 -42 655 160 l38 55 190 0 190 0 38 -55 c141 -202
432 -273 655 -160 73 37 146 99 189 160 l38 54 163 4 c158 3 164 4 183 27 25
30 24 76 -1 101 -18 18 -33 20 -152 20 l-133 0 0 100 0 100 465 0 465 0 0
-100 0 -100 -192 0 -192 0 -20 -26 c-28 -36 -26 -60 8 -95 l29 -29 214 0 213
-1 38 -55 c141 -202 432 -273 655 -160 73 37 147 99 189 160 l38 55 178 1
c278 0 281 2 285 237 2 113 0 175 -9 195 -17 42 -55 68 -100 68 l-39 0 0 515
0 515 -212 476 c-127 283 -223 486 -238 501 -14 14 -35 29 -48 34 -13 5 -168
9 -345 9 -367 0 -374 -1 -412 -78 -11 -23 -24 -41 -29 -42 -4 0 -207 125 -450
279 -242 153 -506 319 -586 369 l-145 91 -150 20 c-82 11 -417 56 -742 101
-326 44 -605 80 -620 80 -16 0 -42 -9 -59 -19z m591 -201 c247 -34 451 -63
454 -65 5 -6 -562 -1565 -570 -1565 -6 0 -805 503 -815 513 -3 3 90 265 206
583 116 319 213 585 215 592 3 9 15 12 32 8 16 -3 230 -33 478 -66z m808 -110
l127 -18 130 -83 c114 -71 130 -84 124 -103 -4 -12 -53 -149 -110 -306 -57
-156 -104 -292 -104 -301 0 -9 9 -28 21 -43 27 -35 80 -36 106 -2 10 13 63
147 117 297 55 151 102 278 106 282 6 7 784 -476 818 -507 10 -10 -29 -128
-200 -597 -116 -321 -213 -586 -215 -589 -5 -5 -956 122 -965 129 -4 3 49 160
117 349 69 188 125 351 125 363 0 28 -44 69 -73 69 -14 0 -34 -8 -46 -17 -13
-12 -66 -142 -152 -378 -72 -198 -132 -362 -134 -364 -2 -1 -73 7 -157 18
l-153 22 -136 85 -137 86 23 62 c12 33 143 392 290 796 147 404 271 744 275
756 9 23 -7 24 203 -6z m-1590 4 c26 -9 47 -17 47 -19 0 -1 -94 -262 -210
-580 -115 -318 -210 -592 -210 -610 0 -18 43 -151 96 -296 53 -145 113 -312
135 -371 l38 -108 -62 0 -62 0 -140 387 c-77 212 -139 391 -137 397 2 6 100
277 218 601 118 325 216 596 219 603 6 16 12 15 68 -4z m3707 -716 c18 -40 34
-78 37 -85 3 -9 -41 -13 -174 -15 -202 -3 -215 -8 -253 -84 -18 -37 -20 -60
-20 -294 0 -233 2 -257 20 -295 13 -26 34 -49 59 -63 38 -21 48 -22 370 -22
l331 0 0 -50 0 -50 -132 0 c-155 0 -197 -9 -232 -51 -26 -30 -26 -33 -26 -190
0 -243 6 -249 240 -249 l150 0 0 -190 0 -190 -80 0 -79 0 -29 43 c-80 116
-218 204 -355 228 -129 22 -291 -18 -394 -97 -17 -13 -34 -24 -37 -24 -3 0 -6
394 -6 875 l0 875 289 0 288 0 33 -72z m206 -461 c51 -115 96 -217 99 -228 6
-18 -2 -19 -279 -19 l-286 0 0 230 0 230 186 -2 186 -3 94 -208z m-3513 -360
c326 -206 598 -377 606 -382 8 -4 98 -20 200 -35 l186 -28 -669 2 -669 1 -138
380 c-102 278 -137 387 -133 408 3 15 10 27 16 27 5 0 276 -168 601 -373z
m2543 -444 c-2 -2 -64 -2 -139 -1 l-135 3 137 376 136 376 3 -375 c1 -206 1
-377 -2 -379z m1134 62 l0 -95 -120 0 -120 0 0 95 0 95 120 0 120 0 0 -95z
m-1130 -420 l0 -205 -500 0 -499 0 -29 43 c-80 116 -218 204 -355 228 -192 33
-403 -60 -519 -228 l-29 -43 -184 0 -184 0 -29 43 c-116 168 -327 261 -519
228 -137 -24 -275 -112 -355 -228 l-29 -43 -79 0 -80 0 0 205 0 205 1695 0
1695 0 0 -205z m-2627 -105 c79 -30 158 -104 199 -188 30 -60 33 -75 33 -157
0 -80 -4 -97 -32 -157 -38 -81 -102 -146 -181 -185 -51 -25 -68 -28 -157 -28
-89 0 -106 3 -157 28 -79 39 -143 104 -181 185 -29 60 -32 76 -32 157 0 76 5
99 27 147 87 187 288 270 481 198z m1300 0 c79 -30 158 -104 199 -188 30 -60
33 -75 33 -157 0 -80 -4 -97 -32 -157 -38 -81 -102 -146 -181 -185 -51 -25
-68 -28 -157 -28 -89 0 -106 3 -157 28 -79 39 -143 104 -181 185 -29 60 -32
76 -32 157 0 76 5 99 27 147 87 187 288 270 481 198z m1970 0 c79 -30 158
-104 199 -188 30 -60 33 -75 33 -157 0 -80 -4 -97 -32 -157 -38 -81 -102 -146
-181 -185 -51 -25 -68 -28 -157 -28 -89 0 -106 3 -157 28 -79 39 -143 104
-181 185 -29 60 -32 76 -32 157 0 76 5 99 27 147 87 187 288 270 481 198z
m-3928 -350 l0 -100 -127 0 -128 0 0 100 0 100 128 0 127 0 0 -100z m1300 0
l0 -100 -130 0 -130 0 0 100 0 100 130 0 130 0 0 -100z m3265 0 l0 -100 -127
0 -128 0 0 100 0 100 128 0 127 0 0 -100z"/>
<path d="M858 1476 c-53 -19 -83 -40 -111 -78 -66 -89 -62 -200 11 -280 162
-179 450 -18 381 213 -34 112 -175 185 -281 145z m125 -167 c23 -28 22 -60 -4
-93 -28 -36 -80 -36 -108 0 -28 36 -26 70 5 101 20 20 31 24 57 19 18 -3 40
-16 50 -27z"/>
<path d="M2158 1476 c-53 -19 -83 -40 -111 -78 -66 -89 -62 -200 11 -280 162
-179 450 -18 381 213 -34 112 -175 185 -281 145z m125 -167 c23 -28 22 -60 -4
-93 -28 -36 -80 -36 -108 0 -28 36 -26 70 5 101 20 20 31 24 57 19 18 -3 40
-16 50 -27z"/>
<path d="M4128 1476 c-53 -19 -83 -40 -111 -78 -66 -89 -62 -200 11 -280 162
-179 450 -18 381 213 -34 112 -175 185 -281 145z m125 -167 c23 -28 22 -60 -4
-93 -28 -36 -80 -36 -108 0 -28 36 -26 70 5 101 20 20 31 24 57 19 18 -3 40
-16 50 -27z"/>
</g>
</svg>
