<?xml version="1.0" standalone="no"?>
<!DOCTYPE svg PUBLIC "-//W3C//DTD SVG 20010904//EN"
 "http://www.w3.org/TR/2001/REC-SVG-20010904/DTD/svg10.dtd">
<svg version="1.0" xmlns="http://www.w3.org/2000/svg"
 width="512.000000pt" height="512.000000pt" viewBox="0 0 512.000000 512.000000"
 preserveAspectRatio="xMidYMid meet">

<g transform="translate(0.000000,512.000000) scale(0.100000,-0.100000)"
fill="#fff" stroke="#fff">
<path d="M2309 5025 c-186 -34 -346 -116 -484 -247 -141 -135 -229 -281 -274
-458 l-18 -73 -47 -12 c-53 -14 -93 -46 -112 -92 -19 -44 -19 -242 0 -286 17
-43 68 -85 111 -93 l33 -6 4 -241 c3 -240 3 -242 30 -293 40 -75 70 -107 137
-143 42 -22 80 -33 125 -38 60 -5 66 -8 77 -36 20 -48 109 -131 174 -162 33
-16 62 -30 64 -31 1 -2 -4 -25 -14 -53 l-16 -49 -112 -36 c-121 -38 -243 -93
-333 -151 -31 -20 -58 -34 -61 -31 -3 2 -43 123 -89 268 -47 145 -95 279 -108
299 -59 89 -221 146 -386 136 -319 -21 -563 -212 -526 -413 5 -24 105 -183
303 -478 287 -429 295 -442 284 -471 -80 -207 -104 -331 -104 -535 0 -137 3
-178 21 -241 60 -218 216 -426 398 -530 l51 -29 5 -93 c8 -143 57 -227 170
-288 l63 -34 923 -3 922 -3 0 522 0 521 58 -59 c298 -296 807 -216 991 158 73
148 71 113 71 1158 0 704 -3 944 -12 975 -16 55 -99 138 -154 154 -23 7 -92
12 -154 12 -145 0 -182 -11 -245 -75 -50 -50 -75 -102 -75 -159 0 -17 -5 -26
-16 -26 -8 0 -39 -24 -68 -52 -66 -67 -80 -112 -74 -241 4 -108 24 -150 105
-230 l49 -47 -42 -356 c-23 -195 -43 -357 -46 -359 -2 -2 -37 41 -78 96 -219
296 -535 514 -897 619 l-72 20 -16 51 c-9 28 -15 51 -14 53 2 1 31 15 64 31
65 31 154 114 174 162 11 28 17 31 77 36 45 5 83 16 125 38 67 36 97 68 137
143 27 51 27 53 30 293 l4 241 33 6 c43 8 94 50 111 93 19 44 19 242 0 286
-19 46 -59 78 -112 92 l-47 12 -17 69 c-62 241 -237 476 -445 593 -198 113
-437 155 -656 116z m251 -465 l0 -320 -80 0 -80 0 0 320 0 320 80 0 80 0 0
-320z m-320 -20 l0 -300 -270 0 c-218 0 -270 3 -270 13 0 29 43 145 77 207 88
161 229 289 392 356 31 13 59 24 64 24 4 0 7 -135 7 -300z m597 254 c142 -68
267 -189 346 -334 34 -62 77 -178 77 -207 0 -10 -52 -13 -270 -13 l-270 0 0
301 0 300 23 -6 c12 -3 54 -22 94 -41z m603 -794 l0 -80 -960 0 -960 0 0 80 0
80 960 0 960 0 0 -80z m-1600 -277 l0 -38 -63 -16 c-34 -9 -70 -19 -79 -23
-16 -7 -18 -2 -18 53 l0 61 80 0 80 0 0 -37z m1120 -259 c0 -204 -4 -310 -12
-338 -16 -55 -99 -138 -154 -154 -57 -17 -571 -17 -628 0 -55 16 -138 99 -154
154 -8 28 -12 134 -12 338 l0 296 480 0 480 0 0 -296z m320 235 c0 -55 -2 -60
-17 -53 -10 4 -46 14 -80 23 l-63 16 0 38 0 37 80 0 80 0 0 -61z m-1440 -339
c0 -177 1 -173 -63 -146 -125 52 -126 238 -2 292 66 29 65 31 65 -146z m1369
132 c49 -36 66 -70 66 -132 0 -44 -5 -66 -21 -86 -28 -39 -63 -63 -101 -70
l-33 -6 0 162 0 163 33 -7 c17 -3 43 -14 56 -24z m1246 -157 l25 -24 0 -256 0
-255 -183 0 -184 0 -56 59 -57 60 0 76 c0 67 3 79 25 100 20 21 34 25 80 25
l55 0 0 95 c0 88 2 98 25 120 23 24 31 25 135 25 104 0 112 -1 135 -25z
m-3253 -323 c25 -11 54 -32 63 -46 70 -106 -198 -259 -425 -243 -226 15 -263
143 -71 246 135 72 326 91 433 43z m1485 -286 l23 -70 -33 -41 c-133 -170
-193 -244 -197 -244 -4 0 -64 74 -198 244 l-32 42 20 59 c11 32 22 65 25 72 3
10 46 12 186 10 l182 -3 24 -69z m-1266 -230 l76 -233 -26 -49 c-26 -49 -26
-50 -29 -323 l-3 -274 -313 469 -313 469 91 6 c50 4 120 14 156 23 80 21 219
88 250 121 13 14 26 25 30 25 3 0 40 -105 81 -234z m3059 -449 c0 -500 -2
-602 -15 -652 -66 -250 -317 -403 -560 -340 -150 40 -244 123 -331 296 l-54
109 0 150 0 150 -80 0 -80 0 0 -760 0 -760 -240 0 -240 0 0 89 0 89 30 12 c42
17 104 90 118 138 15 51 15 253 0 304 -14 48 -76 121 -118 138 l-30 12 0 759
0 758 52 -16 c372 -110 723 -405 898 -753 l47 -95 -18 -150 c-10 -82 -17 -150
-16 -152 5 -5 150 -24 154 -20 2 3 153 1261 153 1281 0 4 74 6 165 6 l165 0 0
-593z m-2290 428 l61 -75 -240 0 c-133 0 -241 3 -241 6 0 15 308 141 352 144
4 0 34 -34 68 -75z m530 -701 l0 -635 -30 21 c-16 11 -52 26 -79 33 l-50 12
-5 480 c-2 264 -5 487 -7 495 -3 12 156 227 169 229 1 1 2 -285 2 -635z m-760
461 c0 -4 -7 -20 -16 -37 -9 -18 -19 -68 -22 -115 l-5 -83 80 0 81 0 4 70 c6
110 58 165 158 165 97 0 155 -58 155 -155 0 -63 -16 -95 -69 -134 -26 -20 -43
-21 -304 -24 -178 -2 -290 1 -314 7 -45 14 -95 69 -104 116 -14 75 24 152 91
181 29 13 265 21 265 9z m-281 -461 c33 -11 114 -14 321 -14 270 0 307 3 383
35 16 7 17 -11 17 -299 l0 -306 -36 -15 c-19 -8 -63 -42 -98 -75 l-63 -60
-170 0 c-188 0 -254 8 -360 46 l-73 26 0 345 c0 325 1 345 18 338 9 -4 37 -14
61 -21z m-239 -496 l0 -53 -49 51 -49 50 -58 -43 c-33 -24 -61 -48 -62 -54 -7
-19 164 -174 244 -220 170 -98 256 -120 502 -126 l192 -5 0 -160 0 -160 -227
4 c-213 4 -233 6 -308 31 -115 38 -199 91 -290 182 -91 91 -144 175 -182 290
-24 72 -27 95 -27 230 0 121 4 170 23 254 39 179 24 182 166 -32 121 -180 125
-189 125 -239z m1175 -263 c21 -20 25 -34 25 -80 l0 -55 95 0 c88 0 98 -2 120
-25 24 -23 25 -31 25 -135 0 -104 -1 -112 -25 -135 l-24 -25 -256 0 -255 0 0
183 0 184 59 56 60 57 76 0 c67 0 79 -3 100 -25z m-895 -606 c30 -5 196 -9
369 -9 l314 0 -7 -32 c-7 -39 -31 -74 -70 -102 -26 -20 -40 -21 -326 -21 -286
0 -300 1 -326 21 -45 33 -66 68 -72 119 l-5 48 34 -7 c19 -4 59 -11 89 -17z
m1000 -89 l0 -80 -101 0 c-93 0 -100 1 -93 18 4 9 14 45 23 79 l16 63 78 0 77
0 0 -80z"/>
</g>
</svg>
