<?xml version="1.0" standalone="no"?>
<!DOCTYPE svg PUBLIC "-//W3C//DTD SVG 20010904//EN"
 "http://www.w3.org/TR/2001/REC-SVG-20010904/DTD/svg10.dtd">
<svg version="1.0" xmlns="http://www.w3.org/2000/svg"
 width="512.000000pt" height="512.000000pt" viewBox="0 0 512.000000 512.000000"
 preserveAspectRatio="xMidYMid meet">

<g transform="translate(0.000000,512.000000) scale(0.100000,-0.100000)"
fill="#fff" stroke="#fff">
<path d="M3889 4637 c-20 -7 -53 -26 -73 -42 -38 -29 -96 -117 -96 -145 0 -11
-171 -86 -568 -249 l-568 -233 -191 1 c-209 2 -254 -5 -304 -46 -60 -51 -69
-86 -69 -290 l0 -181 -133 -4 c-129 -3 -135 -4 -170 -31 -69 -52 -71 -64 -77
-337 l-5 -245 -755 -5 c-676 -4 -758 -7 -785 -21 -75 -42 -95 -93 -95 -244 0
-110 1 -117 25 -140 31 -32 69 -32 100 0 24 23 25 31 25 133 0 91 3 111 16
116 9 3 347 6 752 6 726 0 736 0 779 21 29 14 52 35 68 63 25 42 25 46 25 274
0 127 3 237 6 246 6 14 65 16 569 16 398 0 566 -3 571 -11 3 -6 60 -119 125
-252 l119 -241 0 -465 c0 -256 -4 -472 -8 -479 -7 -10 -316 -12 -1513 -10
l-1504 3 -2 170 c-2 103 -7 179 -14 192 -23 44 -94 47 -125 5 -19 -25 -19
-370 0 -415 16 -39 61 -82 99 -96 19 -7 251 -11 703 -11 l674 0 0 -85 0 -85
-453 0 c-388 0 -461 -2 -508 -16 -92 -28 -168 -72 -234 -139 -259 -259 -184
-687 149 -846 70 -34 99 -42 182 -50 62 -6 724 -9 1764 -7 1868 4 1702 -3
1840 78 255 150 340 468 193 720 -40 67 -120 147 -188 187 -120 71 -87 67
-660 73 l-520 5 0 80 0 80 75 5 c112 8 167 46 190 132 7 25 10 208 8 526 l-3
487 -125 260 c-130 270 -166 326 -226 345 -75 25 -58 36 436 300 256 137 468
246 471 242 17 -18 619 -1185 614 -1190 -3 -3 -164 -74 -358 -158 -225 -97
-362 -162 -379 -179 -49 -49 -48 -123 1 -173 26 -25 637 -308 750 -347 77 -27
161 -20 265 21 200 80 266 128 315 233 21 46 26 70 26 136 -1 80 -1 82 -114
343 -62 145 -182 428 -266 630 -85 202 -162 373 -172 379 -45 34 -113 -1 -113
-57 0 -17 64 -182 141 -368 78 -185 143 -342 146 -348 2 -6 -18 -20 -46 -32
l-50 -20 -386 741 c-213 408 -389 756 -392 773 -7 41 22 101 58 119 15 8 46
15 69 15 72 0 95 -33 205 -300 144 -346 149 -358 181 -370 66 -25 116 34 90
105 -41 116 -240 575 -263 607 -14 21 -48 52 -75 69 -43 28 -61 33 -127 36
-47 2 -89 -2 -112 -10z m-117 -440 l36 -74 -441 -236 -442 -236 -18 46 c-21
55 -47 94 -96 147 -20 21 -31 40 -26 43 164 71 924 382 935 382 10 1 30 -27
52 -72z m-1151 -399 c101 -45 159 -137 167 -265 l5 -83 -312 0 -311 0 0 175
c0 155 2 175 18 185 28 17 389 8 433 -12z m2267 -1243 c89 -210 95 -241 62
-310 -26 -53 -54 -73 -185 -130 -157 -69 -148 -70 -537 106 -175 79 -314 147
-310 151 11 11 855 376 872 377 10 0 41 -62 98 -194z m-1988 -950 l0 -85 -627
2 -628 3 -3 69 c-2 38 -1 75 2 83 4 11 115 13 631 13 l625 0 0 -85z m1222
-267 c291 -136 293 -551 4 -685 l-61 -28 -1735 -3 c-1914 -2 -1774 -7 -1875
60 -61 40 -129 133 -149 202 -57 194 50 403 238 468 48 16 153 17 1786 15
l1735 -2 57 -27z"/>
<path d="M665 1267 c-94 -31 -150 -80 -186 -161 -84 -191 79 -417 285 -392
101 12 179 66 229 160 31 59 31 184 -1 243 -64 122 -210 188 -327 150z m134
-155 c40 -21 71 -73 71 -117 0 -69 -66 -135 -135 -135 -37 0 -88 30 -111 65
-24 37 -23 109 3 143 23 32 78 62 113 62 14 0 41 -8 59 -18z"/>
<path d="M3827 1270 c-140 -35 -236 -188 -206 -329 46 -225 319 -305 478 -141
46 48 81 131 81 195 0 101 -73 216 -164 256 -52 23 -138 31 -189 19z m121
-154 c101 -53 108 -186 11 -238 -69 -37 -146 -9 -183 65 -51 105 69 226 172
173z"/>
<path d="M1089 1185 c-34 -18 -42 -53 -28 -110 7 -29 9 -71 4 -113 -12 -114
-11 -133 14 -154 22 -17 72 -18 1238 -18 l1214 0 26 26 c23 24 25 29 17 82
-10 71 -10 110 0 189 8 58 7 63 -17 87 l-26 26 -1208 0 c-1029 -1 -1212 -3
-1234 -15z m2326 -190 l0 -55 -1097 0 -1098 0 0 55 0 55 1098 0 1097 0 0 -55z"/>
<path d="M1998 3203 c-15 -2 -39 -18 -53 -34 l-25 -31 0 -211 0 -212 158 -157
159 -158 376 0 376 0 28 24 28 24 0 174 0 173 -95 189 c-60 120 -104 195 -120
205 -21 14 -73 16 -415 17 -214 1 -402 -1 -417 -3z m828 -308 l74 -155 0 -95
0 -95 -302 0 -303 0 -112 112 -113 113 0 137 0 138 341 0 340 0 75 -155z"/>
<path d="M553 2518 c-11 -13 -62 -109 -112 -214 -98 -204 -103 -227 -58 -259
30 -21 62 -19 90 8 26 23 207 390 207 418 0 9 -9 28 -21 43 -27 34 -77 36
-106 4z"/>
<path d="M917 2529 c-24 -14 -207 -394 -207 -430 0 -51 72 -87 113 -56 25 19
207 394 207 427 0 54 -64 87 -113 59z"/>
<path d="M1263 2518 c-26 -28 -203 -396 -203 -421 0 -26 45 -67 73 -67 14 0
34 8 46 18 24 19 211 396 211 424 0 29 -45 68 -78 68 -17 0 -37 -9 -49 -22z"/>
<path d="M1975 2288 c-48 -29 -57 -70 -24 -112 20 -25 23 -26 140 -26 106 0
121 2 139 20 27 27 26 81 -1 106 -17 16 -39 19 -128 22 -69 1 -113 -2 -126
-10z"/>
</g>
</svg>
