<?xml version="1.0" standalone="no"?>
<!DOCTYPE svg PUBLIC "-//W3C//DTD SVG 20010904//EN"
 "http://www.w3.org/TR/2001/REC-SVG-20010904/DTD/svg10.dtd">
<svg version="1.0" xmlns="http://www.w3.org/2000/svg"
 width="512" height="512" viewBox="0 0 512.000000 512.000000"
 preserveAspectRatio="xMidYMid meet">

<g transform="translate(0.000000,512.000000) scale(0.100000,-0.100000)"
fill="#e87676" stroke="#e87676">
<path d="M1760 5105 c-142 -21 -251 -55 -369 -114 -84 -43 -104 -99 -53 -150
22 -23 39 -29 97 -35 182 -18 458 -98 685 -198 312 -137 644 -340 959 -587
l120 -95 -18 -25 c-40 -58 -53 -154 -30 -221 l12 -32 -1555 -1557 c-1405
-1406 -1557 -1561 -1578 -1610 -71 -173 0 -363 167 -446 50 -25 70 -29 143
-29 160 -1 4 -144 1751 1602 l1557 1554 37 -12 c52 -17 141 -8 197 20 l48 23
22 -28 c378 -472 614 -880 756 -1310 52 -157 86 -301 98 -420 6 -58 12 -75 35
-97 58 -59 111 -30 167 89 190 409 134 955 -159 1558 -93 192 -244 436 -379
615 l-58 76 25 29 c62 75 83 181 54 270 -18 53 -433 475 -499 506 -87 43 -203
24 -287 -45 l-30 -25 -65 51 c-235 183 -583 382 -862 492 -349 137 -710 193
-988 151z m340 -165 c453 -47 950 -267 1435 -635 18 -15 14 -21 -100 -135
l-119 -119 -55 45 c-106 86 -316 241 -421 311 -328 218 -724 410 -1018 493
-45 12 -81 25 -78 27 6 7 134 20 201 22 33 0 103 -4 155 -9z m2024 -808 c192
-191 223 -232 207 -274 -5 -13 -128 -141 -273 -285 -242 -242 -267 -263 -298
-263 -31 0 -53 18 -242 208 -190 189 -208 211 -208 242 0 31 22 56 267 302
147 147 276 269 287 271 43 7 76 -19 260 -201z m252 -695 c385 -533 598 -1116
569 -1557 -10 -150 -17 -159 -45 -59 -82 294 -274 690 -493 1019 -72 108 -231
323 -311 420 l-45 55 117 118 c64 64 119 117 122 117 3 0 41 -51 86 -113z
m-2388 -1695 c-1064 -1064 -1545 -1540 -1573 -1553 -53 -25 -91 -24 -145 4
-77 38 -114 120 -91 200 11 37 209 238 1554 1584 l1542 1543 122 -122 123
-123 -1532 -1533z"/>
</g>
</svg>
