<?xml version="1.0" standalone="no"?>
<!DOCTYPE svg PUBLIC "-//W3C//DTD SVG 20010904//EN"
 "http://www.w3.org/TR/2001/REC-SVG-20010904/DTD/svg10.dtd">
<svg version="1.0" xmlns="http://www.w3.org/2000/svg"
 width="512.000000pt" height="512.000000pt" viewBox="0 0 512.000000 512.000000"
 preserveAspectRatio="xMidYMid meet">

<g transform="translate(0.000000,512.000000) scale(0.100000,-0.100000)"
fill="#fff" stroke="#fff">
<path d="M460 4834 c-214 -56 -384 -229 -440 -450 -20 -75 -20 -118 -20 -1824
0 -1706 0 -1749 20 -1824 57 -223 227 -396 445 -451 52 -13 331 -15 2260 -15
2109 0 2202 1 2240 19 50 22 99 70 128 125 l22 41 0 1575 0 1575 -21 40 c-45
84 -139 145 -222 145 -75 0 -117 -70 -77 -127 9 -12 39 -28 70 -37 94 -28 85
138 85 -1598 l0 -1537 -24 -28 -24 -28 -2179 0 c-1851 0 -2186 2 -2228 14
-193 55 -325 230 -325 431 0 120 36 211 121 304 68 75 167 124 275 137 63 8
84 15 104 35 l25 24 3 1125 2 1125 238 0 c255 1 262 2 281 53 12 31 0 73 -27
93 -13 10 -76 13 -254 14 l-238 0 0 489 c0 503 -3 541 -40 561 -27 14 -136 11
-200 -6z m68 -1751 l-3 -1598 -50 -11 c-100 -23 -182 -65 -260 -133 l-40 -35
-3 1499 c-2 1135 0 1511 9 1545 37 141 147 262 280 310 30 10 57 19 62 20 4 0
6 -719 5 -1597z"/>
<path d="M4289 4665 c-22 -12 -43 -56 -123 -255 l-96 -240 0 -1618 c0 -1555 1
-1619 19 -1658 10 -23 34 -52 52 -65 31 -22 45 -24 177 -27 138 -3 144 -3 186
22 30 17 51 40 65 69 l21 43 0 1614 0 1613 -86 216 c-107 271 -110 276 -140
290 -32 14 -43 14 -75 -4z m88 -410 l41 -105 -89 0 -89 0 21 53 c12 28 30 76
41 105 12 28 24 52 27 52 3 0 25 -47 48 -105z m43 -1605 l0 -1330 -90 0 -90 0
0 1330 0 1330 90 0 90 0 0 -1330z m0 -1595 l0 -95 -90 0 -90 0 0 95 0 95 90 0
90 0 0 -95z"/>
<path d="M1442 4297 l-22 -23 0 -1538 0 -1537 25 -24 24 -25 1181 0 1181 0 24
25 c26 25 32 63 15 95 -18 34 -2291 3005 -2316 3028 -34 30 -84 29 -112 -1z
m1167 -1645 c556 -727 1011 -1324 1011 -1327 0 -3 -459 -5 -1020 -5 l-1020 0
0 1337 c0 786 4 1333 9 1328 5 -6 464 -605 1020 -1333z"/>
<path d="M1920 3013 c-8 -3 -25 -15 -37 -26 l-23 -20 0 -662 c0 -647 0 -662
20 -683 11 -11 35 -24 52 -27 18 -3 252 -5 520 -3 l487 3 23 22 c52 53 63 36
-471 734 -270 354 -497 647 -504 650 -22 12 -52 17 -67 12z m457 -785 c186
-243 342 -447 346 -455 7 -11 -55 -13 -348 -13 l-355 0 0 461 c0 293 4 458 10
454 5 -3 161 -204 347 -447z"/>
<path d="M2339 3780 c-9 -5 -22 -23 -29 -40 -15 -35 0 -84 31 -100 11 -6 302
-10 754 -10 l736 0 24 25 c16 15 25 36 25 55 0 19 -9 40 -25 55 l-24 25 -738
0 c-445 0 -744 -4 -754 -10z"/>
</g>
</svg>
