<?xml version="1.0" standalone="no"?>
<!DOCTYPE svg PUBLIC "-//W3C//DTD SVG 20010904//EN"
 "http://www.w3.org/TR/2001/REC-SVG-20010904/DTD/svg10.dtd">
<svg version="1.0" xmlns="http://www.w3.org/2000/svg"
 width="512.000000pt" height="512.000000pt" viewBox="0 0 512.000000 512.000000"
 preserveAspectRatio="xMidYMid meet">

<g transform="translate(0.000000,512.000000) scale(0.100000,-0.100000)"
fill="#e87676" stroke="#e87676">
<path d="M2478 5105 c-58 -21 -102 -60 -134 -117 l-29 -53 -3 -208 -4 -207
-116 109 c-65 59 -133 117 -152 127 -47 25 -161 25 -210 0 -113 -58 -165 -185
-126 -304 18 -54 72 -110 443 -463 l163 -154 0 -185 0 -185 -205 -117 c-112
-65 -209 -118 -215 -118 -15 0 -296 158 -308 173 -5 7 -26 80 -47 162 -21 83
-44 160 -51 171 -28 47 -117 32 -130 -22 -7 -27 80 -383 100 -409 14 -18 415
-245 434 -245 18 0 45 15 302 163 124 71 235 139 248 150 22 20 22 24 22 273
l0 252 -305 292 c-179 171 -308 302 -311 316 -19 77 58 146 127 113 15 -8 104
-86 196 -175 92 -88 178 -166 190 -173 27 -14 65 -6 87 18 13 14 16 65 18 320
l3 303 33 29 c42 38 82 38 124 0 l33 -29 3 -303 c2 -255 5 -306 18 -320 22
-24 60 -32 87 -18 12 7 98 85 190 173 92 89 181 167 196 175 69 33 146 -36
127 -113 -3 -14 -132 -145 -311 -316 l-305 -292 0 -252 c0 -249 0 -253 23
-273 25 -24 484 -290 527 -306 26 -10 41 -3 182 75 237 133 275 156 283 175 3
10 49 187 101 393 52 206 100 388 106 403 24 61 94 76 147 31 24 -20 31 -34
31 -60 0 -19 -25 -133 -55 -254 -30 -121 -55 -233 -55 -249 0 -33 39 -71 72
-71 11 0 132 64 270 142 282 160 300 165 349 110 34 -38 37 -79 9 -114 -11
-14 -132 -89 -269 -167 -137 -77 -252 -148 -255 -157 -13 -34 -6 -73 18 -91
13 -10 128 -50 255 -88 200 -59 236 -73 257 -98 30 -35 31 -76 3 -111 -39 -49
-59 -50 -201 -9 l-128 37 -28 -21 c-30 -22 -40 -69 -22 -102 10 -20 132 -63
256 -92 177 -41 340 142 281 315 -36 105 -89 142 -294 202 -73 21 -133 41
-133 44 0 3 73 46 161 95 208 117 250 159 265 267 23 166 -148 314 -306 265
-25 -8 -117 -55 -205 -105 -88 -50 -161 -89 -163 -87 -2 1 13 67 33 146 45
178 45 241 -1 315 -79 129 -259 152 -374 48 -20 -18 -44 -50 -53 -71 -9 -21
-58 -202 -108 -403 -50 -201 -95 -370 -100 -376 -12 -15 -294 -174 -309 -174
-6 0 -103 53 -215 118 l-205 117 0 185 0 185 163 154 c383 364 424 407 442
462 40 120 -12 247 -125 305 -49 25 -163 25 -210 0 -19 -10 -87 -68 -152 -127
l-116 -109 -4 207 -3 208 -29 53 c-61 109 -186 158 -298 117z"/>
<path d="M1042 4294 c-83 -41 -132 -121 -132 -214 0 -28 16 -114 35 -192 20
-77 35 -142 33 -143 -2 -2 -77 39 -168 90 -91 52 -186 99 -213 106 -174 42
-338 -138 -285 -313 21 -72 83 -125 257 -223 88 -49 161 -92 161 -95 0 -3 -63
-25 -141 -47 -167 -50 -220 -79 -259 -140 -77 -121 -37 -276 88 -346 92 -51
114 -48 542 81 l375 114 157 -89 157 -88 0 -235 0 -235 -157 -88 -157 -89
-370 111 c-203 61 -384 114 -402 117 -17 4 -55 1 -82 -6 -175 -42 -247 -249
-137 -393 36 -47 100 -78 254 -123 72 -21 132 -41 132 -44 -1 -3 -80 -50 -177
-105 -154 -87 -180 -106 -205 -145 -55 -86 -61 -167 -18 -255 27 -57 84 -100
159 -121 81 -24 128 -9 321 100 91 52 166 93 168 91 2 -1 -13 -67 -33 -146
-45 -178 -45 -241 1 -315 79 -129 259 -152 374 -48 20 18 44 50 53 71 9 21 58
202 108 403 50 201 96 370 101 377 12 15 293 173 308 173 6 0 103 -53 215
-117 l205 -118 0 -186 0 -186 -100 -92 c-55 -51 -102 -102 -106 -115 -13 -53
37 -105 89 -92 14 3 79 58 146 122 l121 116 0 252 c0 249 0 253 -22 273 -46
42 -533 314 -555 310 -33 -6 -424 -230 -434 -249 -5 -9 -52 -187 -104 -395
-53 -208 -101 -391 -107 -406 -26 -67 -120 -77 -165 -18 -21 28 -15 76 42 301
30 121 55 232 55 248 0 34 -36 72 -69 72 -12 0 -135 -64 -273 -142 -274 -155
-297 -163 -344 -117 -13 14 -27 41 -30 61 -9 55 24 81 286 228 129 72 241 139
248 148 21 27 15 78 -12 99 -13 10 -128 50 -255 88 -200 59 -236 73 -257 98
-41 49 -26 114 34 143 l34 16 405 -122 c242 -72 412 -119 423 -115 42 13 396
219 418 242 22 24 22 27 22 322 0 270 -2 301 -17 320 -17 20 -384 234 -424
246 -10 4 -193 -46 -419 -115 -270 -81 -409 -118 -425 -114 -34 9 -75 60 -75
94 0 16 11 41 24 57 21 25 57 39 257 98 127 38 242 78 255 88 29 23 33 79 6
105 -9 9 -124 77 -255 150 -130 74 -246 146 -258 160 -42 55 4 146 74 146 25
0 99 -37 285 -142 138 -78 259 -142 270 -142 33 0 72 38 72 71 0 16 -25 128
-55 249 -30 121 -55 235 -55 254 0 62 82 107 141 76 26 -14 43 -51 64 -139 20
-83 41 -111 84 -111 43 0 75 31 75 71 -1 61 -45 199 -78 243 -69 92 -200 122
-304 70z"/>
<path d="M2274 3049 c-181 -105 -265 -159 -273 -176 -15 -33 -15 -593 0 -626
6 -13 25 -32 42 -43 244 -145 497 -284 517 -284 14 0 119 54 235 121 301 172
312 180 324 206 15 33 15 593 0 626 -14 30 -508 320 -554 325 -24 2 -84 -28
-291 -149z m497 -130 l209 -121 -2 -240 -3 -239 -207 -120 -208 -120 -207 120
-208 120 -3 239 -2 240 207 121 c115 66 209 121 211 121 2 0 98 -54 213 -121z"/>
<path d="M3740 3117 c-138 -72 -394 -224 -405 -241 -12 -17 -15 -74 -15 -317
0 -268 2 -299 18 -318 16 -20 383 -234 423 -246 10 -4 194 47 419 114 268 81
409 119 426 115 33 -9 74 -60 74 -94 0 -16 -11 -41 -24 -57 -21 -25 -57 -39
-257 -98 -127 -38 -242 -78 -255 -88 -24 -18 -31 -57 -18 -91 3 -9 118 -80
255 -157 137 -78 258 -153 269 -167 28 -35 25 -76 -8 -113 -50 -56 -69 -50
-350 109 -138 78 -259 142 -270 142 -33 0 -72 -38 -72 -71 0 -16 25 -128 55
-249 30 -121 55 -235 55 -254 0 -26 -7 -40 -31 -60 -53 -45 -123 -30 -147 31
-6 15 -54 198 -107 406 -52 208 -99 386 -104 395 -9 17 -364 224 -421 245 -27
10 -45 1 -287 -137 -142 -82 -268 -158 -280 -169 -23 -20 -23 -24 -23 -273 l0
-252 305 -292 c179 -171 308 -302 311 -316 19 -77 -58 -146 -127 -113 -15 8
-104 86 -196 175 -92 88 -178 166 -190 173 -27 14 -65 6 -87 -18 -13 -14 -16
-65 -18 -320 l-3 -303 -33 -29 c-42 -38 -82 -38 -124 0 l-33 29 -3 303 c-2
255 -5 306 -18 320 -36 40 -93 30 -144 -26 -79 -86 -322 -305 -344 -311 -36
-9 -84 13 -101 47 -30 57 -21 75 80 178 80 82 95 102 95 129 0 41 -31 72 -71
72 -25 0 -47 -16 -117 -82 -108 -103 -119 -116 -137 -169 -41 -116 10 -243
120 -302 53 -28 164 -30 215 -3 19 10 87 68 152 127 l116 109 4 -207 3 -208
29 -53 c98 -175 334 -175 432 0 l29 53 3 208 4 207 116 -109 c65 -59 132 -116
149 -125 112 -57 267 -6 324 107 30 57 35 133 15 195 -18 54 -74 113 -443 463
l-163 154 1 185 0 185 204 118 c112 64 209 117 215 117 15 0 297 -159 309
-174 5 -6 50 -175 100 -376 50 -201 99 -382 108 -403 9 -21 33 -53 53 -71 115
-104 295 -81 374 48 46 74 46 137 1 315 -20 79 -35 145 -33 146 2 2 75 -37
163 -87 88 -50 180 -97 205 -105 57 -18 120 -9 183 25 152 82 167 304 27 407
-17 13 -99 61 -181 107 -82 45 -149 85 -149 88 0 3 60 23 133 44 153 45 217
76 252 122 96 126 62 294 -75 368 -91 50 -114 46 -540 -82 l-375 -114 -157 89
-157 88 0 235 0 235 157 88 157 89 121 -36 c148 -44 175 -45 203 -10 54 68 16
102 -174 159 -82 25 -154 45 -160 45 -5 0 -21 -6 -35 -13z"/>
</g>
</svg>
