<?xml version="1.0" encoding="UTF-8"?>
<!DOCTYPE svg PUBLIC "-//W3C//DTD SVG 1.1//EN" "http://www.w3.org/Graphics/SVG/1.1/DTD/svg11.dtd">
<!-- Creator: CorelDRAW X8 -->
<svg xmlns="http://www.w3.org/2000/svg" xml:space="preserve" width="210mm" height="297mm" version="1.1" style="shape-rendering:geometricPrecision; text-rendering:geometricPrecision; image-rendering:optimizeQuality; fill-rule:evenodd; clip-rule:evenodd"
viewBox="0 0 21000 29700"
 xmlns:xlink="http://www.w3.org/1999/xlink">
 <defs>
  <style type="text/css">
   <![CDATA[
    .str2 {stroke:#373435;stroke-width:500}
    .str1 {stroke:#373435;stroke-width:50}
    .str0 {stroke:#282829;stroke-width:50}
    .str6 {stroke:#373435;stroke-width:250}
    .str5 {stroke:#373435;stroke-width:20}
    .str3 {stroke:#373435;stroke-width:50;stroke-dasharray:250.000000 150.000000}
    .str4 {stroke:#373435;stroke-width:50;stroke-dasharray:250.000000 250.000000}
    .fil2 {fill:none}
    .fil3 {fill:#373435}
    .fil1 {fill:#373435;fill-rule:nonzero}
    .fil0 {fill:#373435;fill-rule:nonzero}
   ]]>
  </style>
 </defs>
 <g id="Layer_x0020_1">
  <metadata id="CorelCorpID_0Corel-Layer"/>
  <path class="fil0 str0" d="M11078 8912c62,-83 93,-190 93,-319l0 -206 342 0 0 525 71 0 0 164 -62 0 0 -107 -435 0 0 107 -62 0 0 -164 53 0zm155 -319c0,131 -28,237 -84,319l302 0 0 -469 -218 0 0 150zm1035 83c0,-93 -21,-160 -62,-200 -29,-28 -66,-42 -112,-42 -46,0 -83,14 -112,42 -41,40 -62,107 -62,200 0,94 21,160 62,200 29,28 66,42 112,42 46,0 83,-14 112,-42 41,-40 62,-106 62,-200zm-174 -298c66,0 120,20 162,59 56,54 84,134 84,239 0,106 -28,185 -84,239 -42,40 -96,60 -162,60 -66,0 -120,-20 -162,-60 -55,-54 -83,-133 -83,-239 0,-105 28,-185 83,-239 42,-39 96,-59 162,-59zm802 483l161 -474 112 0 0 582 -62 0 0 -508 -6 0 -174 508 -69 0 -174 -508 -6 0 0 508 -62 0 0 -582 112 0 161 474 7 0zm789 -409l-90 275 186 0 -90 -275 -6 0zm-171 517l-74 0 201 -582 94 0 202 582 -75 0 -62 -185 -224 0 -62 185z"/>
  <path class="fil1" d="M6214 9438c0,16 -3,31 -10,43 -6,13 -14,23 -24,31 -13,10 -26,16 -41,21 -15,4 -33,6 -56,6l-116 0 0 -327 97 0c24,0 42,1 53,2 12,2 24,6 34,11 13,7 21,15 27,25 5,10 8,21 8,35 0,16 -4,29 -12,40 -8,11 -19,19 -32,26l0 2c22,4 40,14 53,29 12,15 19,33 19,56zm-74 -147c0,-8 -1,-14 -4,-20 -2,-5 -6,-9 -12,-13 -7,-4 -16,-6 -25,-7 -10,-1 -22,-1 -37,-1l-52 0 0 93 57 0c13,0 24,-1 32,-2 8,-1 16,-4 23,-8 6,-5 11,-10 14,-17 3,-7 4,-15 4,-25zm28 149c0,-13 -2,-24 -6,-32 -4,-7 -11,-14 -21,-19 -7,-4 -16,-6 -26,-7 -10,-1 -22,-2 -36,-2l-69 0 0 121 58 0c19,0 35,-1 47,-3 12,-2 22,-6 30,-11 8,-5 14,-12 18,-19 3,-8 5,-17 5,-28zm359 75c-8,3 -15,7 -22,10 -6,3 -15,6 -25,9 -9,3 -19,6 -29,8 -11,2 -22,3 -35,3 -24,0 -45,-4 -64,-10 -20,-7 -37,-17 -51,-32 -14,-14 -25,-31 -33,-53 -8,-21 -12,-46 -12,-74 0,-27 4,-51 12,-73 7,-21 18,-39 33,-53 13,-15 30,-25 50,-33 20,-7 41,-11 65,-11 18,0 35,2 53,6 17,5 37,12 58,23l0 51 -3 0c-18,-14 -36,-25 -54,-32 -17,-7 -36,-10 -56,-10 -17,0 -32,2 -45,8 -13,5 -25,13 -35,25 -10,10 -18,24 -24,41 -6,17 -8,36 -8,58 0,23 3,42 9,59 6,16 14,30 24,40 10,11 22,19 36,24 13,5 28,8 43,8 21,0 41,-4 59,-11 18,-7 35,-18 51,-32l3 0 0 51zm277 24l-215 0 0 -327 215 0 0 39 -171 0 0 89 171 0 0 39 -171 0 0 121 171 0 0 39zm477 0l-44 0 0 -160 -162 0 0 160 -44 0 0 -327 44 0 0 128 162 0 0 -128 44 0 0 327zm346 0l-47 0 -32 -91 -141 0 -32 91 -44 0 119 -327 58 0 119 327zm-92 -129l-57 -160 -58 160 115 0zm373 129l-43 0 0 -139c-19,6 -37,11 -53,14 -16,3 -31,4 -46,4 -14,0 -28,-2 -41,-5 -12,-4 -23,-9 -32,-17 -9,-8 -17,-18 -22,-30 -5,-12 -8,-26 -8,-43l0 -111 44 0 0 89c0,13 1,24 2,33 2,9 5,17 10,24 5,6 12,12 20,15 9,3 20,5 36,5 17,0 33,-1 48,-4 16,-3 30,-7 42,-11l0 -151 43 0 0 327zm337 0l-43 0 0 -262 -161 262 -45 0 0 -327 44 0 0 258 159 -258 46 0 0 327zm338 0l-43 0 0 -160 -163 0 0 160 -43 0 0 -327 43 0 0 128 163 0 0 -128 43 0 0 327zm346 0l-46 0 -32 -91 -142 0 -32 91 -44 0 119 -327 58 0 119 327zm-92 -129l-57 -160 -57 160 114 0zm357 129l-215 0 0 -327 215 0 0 39 -171 0 0 89 171 0 0 39 -171 0 0 121 171 0 0 39zm303 -288l-117 0 0 288 -44 0 0 -288 -117 0 0 -39 278 0 0 39zm296 264c-9,3 -16,7 -22,10 -7,3 -15,6 -26,9 -9,3 -19,6 -29,8 -10,2 -22,3 -35,3 -23,0 -45,-4 -64,-10 -20,-7 -36,-17 -51,-32 -14,-14 -25,-31 -33,-53 -8,-21 -12,-46 -12,-74 0,-27 4,-51 12,-73 7,-21 18,-39 33,-53 14,-15 30,-25 50,-33 20,-7 42,-11 66,-11 17,0 35,2 52,6 18,5 37,12 59,23l0 51 -4 0c-18,-14 -36,-25 -53,-32 -18,-7 -37,-10 -57,-10 -17,0 -31,2 -45,8 -13,5 -25,13 -35,25 -10,10 -18,24 -24,41 -5,17 -8,36 -8,58 0,23 3,42 9,59 6,16 14,30 24,40 10,11 22,19 36,24 14,5 28,8 43,8 21,0 41,-4 59,-11 18,-7 35,-18 51,-32l4 0 0 51zm290 24l-43 0 0 -130 -71 0 -97 130 -52 0 104 -137c-21,-7 -38,-19 -50,-34 -12,-16 -18,-37 -18,-63 0,-17 3,-31 10,-43 7,-12 16,-22 27,-30 11,-8 23,-13 37,-16 14,-3 29,-4 46,-4l107 0 0 327zm-43 -167l0 -122 -66 0c-13,0 -23,0 -31,2 -7,2 -14,5 -21,9 -6,4 -12,11 -15,19 -4,8 -6,17 -6,27 0,11 1,21 4,29 3,7 7,14 13,20 7,7 15,11 24,13 10,2 21,3 33,3l65 0zm542 143c-8,3 -16,7 -22,10 -7,3 -15,6 -26,9 -9,3 -18,6 -29,8 -10,2 -22,3 -34,3 -24,0 -46,-4 -65,-10 -19,-7 -36,-17 -50,-32 -15,-14 -26,-31 -33,-53 -8,-21 -12,-46 -12,-74 0,-27 4,-51 11,-73 8,-21 19,-39 33,-53 14,-15 31,-25 50,-33 20,-7 42,-11 66,-11 18,0 35,2 52,6 18,5 37,12 59,23l0 51 -4 0c-17,-14 -35,-25 -53,-32 -18,-7 -37,-10 -57,-10 -16,0 -31,2 -44,8 -14,5 -25,13 -36,25 -10,10 -18,24 -23,41 -6,17 -9,36 -9,58 0,23 3,42 9,59 7,16 15,30 24,40 11,11 23,19 36,24 14,5 28,8 44,8 21,0 40,-4 58,-11 19,-7 36,-18 52,-32l3 0 0 51zm521 -142c0,21 -4,39 -10,55 -7,15 -16,29 -27,39 -13,12 -28,21 -46,28 -17,7 -36,10 -57,11l0 36 -43 0 0 -36c-20,-1 -39,-4 -57,-11 -18,-6 -33,-16 -46,-28 -11,-10 -20,-24 -27,-39 -6,-16 -10,-34 -10,-55 0,-20 3,-37 10,-52 6,-15 15,-28 26,-39 12,-12 27,-21 44,-28 18,-7 38,-11 60,-12l0 -34 43 0 0 34c22,1 42,5 60,12 18,7 33,16 44,28 11,10 20,23 26,39 7,15 10,32 10,52zm-46 -2c0,-14 -2,-27 -7,-40 -4,-12 -11,-22 -20,-30 -8,-8 -18,-14 -28,-18 -10,-4 -23,-6 -39,-6l0 195c14,-1 27,-3 38,-7 11,-4 20,-10 28,-17 9,-8 16,-19 21,-32 5,-12 7,-27 7,-45zm-137 101l0 -195c-16,0 -29,2 -39,6 -10,4 -20,10 -28,18 -9,8 -15,18 -20,30 -5,13 -7,26 -7,40 0,17 2,31 7,45 5,13 12,24 21,32 8,7 17,13 28,17 11,4 24,7 38,7zm481 -260l-124 275c-6,11 -11,20 -18,27 -7,7 -14,13 -22,17 -8,4 -15,6 -22,7 -7,1 -14,2 -21,2 -6,0 -13,0 -21,-1 -8,0 -14,-1 -16,-1l0 -40 3 0c2,0 6,1 11,1 5,1 11,1 18,1 3,0 7,0 12,-1 5,0 10,-1 14,-3 5,-1 9,-4 14,-8 5,-4 8,-9 12,-17l8 -17 -122 -242 48 0 96 193 85 -193 45 0zm295 327l-44 0 0 -160 -162 0 0 160 -44 0 0 -327 44 0 0 128 162 0 0 -128 44 0 0 327zm360 74l-41 0 0 -75 -231 0 0 75 -42 0 0 -113 27 0c19,-31 34,-72 45,-123 12,-50 17,-105 17,-165l194 0 0 288 31 0 0 113zm-75 -113l0 -250 -109 0c-2,52 -9,100 -20,143 -10,43 -24,79 -41,107l170 0zm396 39l-47 0 -31 -91 -142 0 -32 91 -44 0 119 -327 58 0 119 327zm-92 -129l-57 -160 -58 160 115 0zm432 129l-43 0 0 -282 -91 192 -26 0 -90 -192 0 282 -40 0 0 -327 59 0 87 182 84 -182 60 0 0 327zm303 0l-215 0 0 -327 215 0 0 39 -171 0 0 89 171 0 0 39 -171 0 0 121 171 0 0 39zm319 0l-43 0 0 -160 -163 0 0 160 -43 0 0 -327 43 0 0 128 163 0 0 -128 43 0 0 327zm322 -288l-117 0 0 288 -44 0 0 -288 -116 0 0 -39 277 0 0 39zm301 288l-46 0 -32 -91 -142 0 -32 91 -44 0 119 -327 58 0 119 327zm-92 -129l-57 -160 -57 160 114 0z"/>
  <path class="fil1 str1" d="M6419 8673c0,-94 -21,-161 -62,-201 -30,-29 -67,-43 -113,-43 -46,0 -84,14 -113,43 -42,40 -63,107 -63,201 0,95 21,162 63,202 29,28 67,43 113,43 46,0 83,-15 113,-43 41,-40 62,-107 62,-202zm-175 -301c67,0 121,20 163,60 56,55 85,135 85,241 0,107 -29,187 -85,241 -42,41 -96,61 -163,61 -67,0 -122,-20 -163,-61 -57,-54 -85,-134 -85,-241 0,-106 28,-186 85,-241 41,-40 96,-60 163,-60zm1041 398c-17,68 -39,115 -66,141 -44,43 -101,64 -172,64 -69,0 -127,-22 -173,-67 -48,-46 -72,-125 -72,-238 0,-106 25,-183 75,-232 46,-44 104,-66 173,-66 67,0 121,20 163,60 33,33 57,73 72,121l-69 18c-13,-42 -32,-76 -60,-102 -27,-27 -62,-40 -106,-40 -48,0 -86,13 -113,40 -44,42 -66,110 -66,204 0,95 18,159 53,193 36,34 77,52 123,52 48,0 88,-17 122,-49 23,-22 39,-59 47,-111l69 12zm414 -389l0 256 307 0 0 -256 63 0 0 588 -63 0 0 -139 0 -136 -307 0 0 275 -63 0 0 -588 63 0zm1129 292c0,-94 -21,-161 -63,-201 -29,-29 -67,-43 -113,-43 -46,0 -83,14 -112,43 -42,40 -63,107 -63,201 0,95 21,162 63,202 29,28 66,43 112,43 46,0 84,-15 113,-43 42,-40 63,-107 63,-202zm-176 -301c67,0 122,20 164,60 56,55 84,135 84,241 0,107 -28,187 -84,241 -42,41 -97,61 -164,61 -66,0 -121,-20 -163,-61 -56,-54 -84,-134 -84,-241 0,-106 28,-186 84,-241 42,-40 97,-60 163,-60zm850 265c34,0 60,-9 79,-27 19,-18 28,-42 28,-72 0,-28 -9,-51 -28,-69 -21,-21 -48,-31 -82,-31l-166 0 0 199 169 0zm0 274c44,0 77,-11 98,-33 16,-18 25,-42 25,-72 0,-34 -7,-58 -19,-72 -25,-26 -60,-40 -104,-40l-169 0 0 217 169 0zm-232 -530l232 0c59,0 104,15 135,45 28,26 41,61 41,103 0,38 -8,68 -25,90 -13,16 -29,30 -50,42 23,12 40,23 50,33 29,29 44,65 44,109 0,50 -14,88 -41,115 -35,34 -79,51 -132,51l-254 0 0 -588zm988 66l-91 278 189 0 -91 -278 -7 0zm-172 522l-75 0 203 -588 94 0 204 588 -75 0 -63 -187 -225 0 -63 187z"/>
  <line class="fil2 str2" x1="5959" y1="7848" x2="13949" y2= "7859" />
  <polyline class="fil2 str3" points="9885,4324 9885,7520 13137,7500 13148,5701 "/>
  <line class="fil2 str3" x1="11073" y1="7513" x2="11063" y2= "5013" />
  <line class="fil2 str4" x1="13148" y1="5701" x2="10597" y2= "5712" />
  <polyline class="fil2 str4" points="13148,5701 13751,5701 9772,3658 6216,6040 "/>
  <polyline class="fil2 str4" points="11190,5532 13095,5532 9772,3849 6385,6114 6872,6114 "/>
  <polygon class="fil3 str5" points="9687,7511 6861,7511 6872,6114 9687,4219 "/>
  <line class="fil2 str6" x1="4781" y1="8061" x2="15428" y2= "8082" />
  <circle class="fil2 str1" cx="14776" cy="8934" r="250"/>
  <circle class="fil2 str1" cx="5249" cy="8944" r="250"/>
 </g>
</svg>
